<?xml version="1.0" encoding="UTF-8"?>
<svg id="Layer_2" data-name="Layer 2" xmlns="http://www.w3.org/2000/svg" xmlns:xlink="http://www.w3.org/1999/xlink" viewBox="0 0 186.71 48.74">
  <defs>
    <style>
      .cls-1 {
        letter-spacing: -.04em;
      }

      .cls-2 {
        fill: #f8d406;
      }

      .cls-3 {
        fill: #e7b23d;
        font-family: 'NHL_Edge_Vancouver', NHL_Edge_Vancouver;
        font-size: 5.21px;
        letter-spacing: 1.25em;
      }

      .cls-4 {
        fill: #5c5756;
      }

      .cls-5 {
        fill: #f8d705;
      }

      .cls-6 {
        fill: #fff;
        font-family: SportenPersonalUse, 'Sporten Personal Use';
        font-size: 21.99px;
      }

      .cls-7 {
        fill: #2c2b2c;
      }

      .cls-8 {
        fill: url(#linear-gradient);
      }
    </style>
    <linearGradient id="linear-gradient" x1="51.79" y1="29.81" x2="97.63" y2="14.55" gradientUnits="userSpaceOnUse">
      <stop offset="0" stop-color="#e46025"/>
      <stop offset="1" stop-color="#f79e1e"/>
    </linearGradient>
  </defs>
  <g id="Layer_1-2" data-name="Layer 1">
    <text class="cls-3" transform="translate(100.88 16.91)"><tspan x="0" y="0">RUSHOLME</tspan></text>
    <text class="cls-6" transform="translate(101.32 42.07) scale(.84 1)"><tspan x="0" y="0">RENDUN</tspan><tspan class="cls-1" x="69.85" y="0">K</tspan><tspan x="82.77" y="0">S</tspan></text>
    <g>
      <path class="cls-7" d="m69.06,42.54c-8.57,0-15.53-6.97-15.53-15.53s6.97-15.53,15.53-15.53c5.03,0,9.71,2.42,12.63,6.49,3.61-1.34,7.81-2.56,9.88-3.16l.5-.15c.57-.17,1.09-.25,1.55-.25,1.63,0,2.58,1.02,2.63,2.79.05.42-.1,1.6-2.81,2.81,0,0-4.4,1.81-4.4,1.81-2.06.92-4,1.73-4.77,2.05.04.18.07.36.1.56,0,.03.01.05.01.08.13.82.2,1.66.2,2.49,0,8.57-6.97,15.53-15.53,15.53Z"/>
      <path class="cls-4" d="m68.74,13.59c4.28-.13,8.16,1.37,10.78,3.83-2.23-2.84-6.27-4.68-10.83-4.54-4.67.14-8.67,2.32-10.69,5.41,2.46-2.74,6.33-4.56,10.74-4.69Z"/>
      <path class="cls-4" d="m69.03,40.48c-3.98,0-7.53-1.28-9.9-3.29,2.17,2.44,5.84,4.05,10.01,4.05,4.63,0,8.65-1.99,10.68-4.9-2.31,2.49-6.28,4.14-10.79,4.14Z"/>
      <path class="cls-8" d="m94.16,16.6c.22.67-.12.73-.12.73l-1.6.65s-.11.07-.26.07c-.16,0-.35-.08-.48-.43-.24-.67-.09-.68-.09-.68,0,0,.26-.24.77-.41.51-.18.98-.34.98-.34,0,0,.11-.05.25-.05.18,0,.42.08.55.46Zm2.29,2.1c-.52.72-1.41,1.36-2.73,1.94-.01,0-.02.01-.04.02l-4.37,1.8c-1.69.76-3.31,1.44-4.26,1.84,0,0,0,0,0,0,0,.04.01.08.02.12.11.66.16,1.34.18,2.01,1.22-.87,2.24-.73,2.24-.73-1.6,1.63-2.29,3.47-2.29,3.47l-.12.19c-.2,1.36-.55,2.69-1.09,3.96-.82,1.93-1.99,3.67-3.48,5.16-1.49,1.49-3.22,2.66-5.16,3.48-.92.39-1.87.68-2.84.89,3.8-.02,7.34-1.21,10.34-3.09-3.33,2.74-7.62,4.39-12.29,4.39-10.63,0-19.25-8.54-19.25-19.08,0-2.04.32-4,.92-5.84-.25,1.25-.23,2.54-.23,3.86,0,2.07.34,4.06.95,5.93-.08-.67-.14-1.34-.14-2.02,0-2.19.43-4.31,1.28-6.32.82-1.93,1.99-3.67,3.48-5.16,1.49-1.49,3.22-2.66,5.16-3.48,2-.85,4.13-1.28,6.32-1.28.44,0,.88.04,1.32.08,4.18-2.62,7.33-5.02,4.98-6.18,0,0,6.12.47-2.63,6.53,1.04.24,2.04.6,3,1.03,3.1-2.34,7.75-5.2,8.44-8.02.22-.88.82-2.53-8.47-4,0,0,23.75-3.08,3.81,14.13,0,0-.06.05-.15.11.7.58,1.35,1.24,1.95,1.94,1.12-2.18,2.96-4.37,5.76-4.03,0,0-1.62.86-3.14,4.07,2.92-.99,5.83-1.84,7.45-2.3.18-.05.35-.1.5-.15.63-.18,1.22-.28,1.74-.28,1.99,0,3.26,1.32,3.32,3.45.03.32-.02.88-.49,1.54Zm-.89-1.43h0c-.02-1.37-.64-2.17-1.94-2.17-.39,0-.84.07-1.36.22-1.65.48-5.46,1.57-9.03,2.82-.26.73-.51,1.54-.74,2.45,0,0-3.6,14.04-19.2,13.88,0,0-.87.09-.88-.55,0,0-.02-.56-.21-.94,0,0,2.36-.53,4.08-2.43,1.73-1.89,6.85-10.22,11.15-12.95,0,0,1.55,1.17,2.42,2.76,0,0,.25-1.16.82-2.6-.72-.9-1.54-1.72-2.45-2.44-1.81,1.45-5.15,4.29-7.33,7.19-2.02,2.69-2.36,2.87-4.1,5.32s-2.78,3.6-4.85,3.92c0,0-1.35-6.62.94-11.02,2.29-4.4,6.78-6.88,9.25-6,0,0,.95-.61,2.31-1.58-1.07-.42-2.2-.72-3.38-.87-.64.41-1.33.83-2.09,1.28,0,0-10.59,3.9-8.34,17.4,0,0,.05.16-.07.27-.13.11-3.31-2.19-3.36-8.27,0,0,1.15-4.7,7.25-8.5,1.19-.74,2.46-1.51,3.72-2.26-7.78.46-13.96,6.9-13.96,14.8,0,4.05,1.63,7.73,4.27,10.4,1.25,1.14,2.63,2.14,4.14,2.95.22.1.43.22.65.31,0,0,0,0,.01,0,1.78.75,3.73,1.17,5.78,1.17,5.46,0,10.21-2.95,12.79-7.34-6.6,5.41-18.78,1.49-18.78,1.49-.27-.42.12-.31.12-.31,14.53.14,18.33-10.4,18.33-10.4.61,3.74-.99,7.05-.99,7.05.41.53,2.65-3.35,2.65-3.35.22-.43.45-.8.68-1.12.02-.29.04-.58.04-.87,0-.82-.07-1.63-.2-2.42h0s0,0,0-.01c-.03-.2-.07-.39-.11-.59-.04-.28-.04-.57.07-.61,0,0,2.44-.99,5.11-2.19l4.39-1.81c2.59-1.15,2.4-2.11,2.4-2.11Zm-31.24,21.36s5.14,2.02,9.53,0c0,0-4.49.5-10.27-1.32,0,0,.05.87.75,1.32Zm-3.14-4.73l-.22-.91c-.09-.38-.2-.32-.2-.32-2.94-.81-4.16-5.31-4.16-5.31-.21,2.27,1.15,4.99,1.15,4.99,1.09,1.14,2.43,1.46,3,1.72.58.27.44-.17.44-.17Zm.08,1.51c-.2-.02-.65-.1-1.06-.27s-.84-.25-.84-.25c.16.39,1.58,1.7,1.58,1.7.21.17.88-.4.88-.4-.19-.88-.56-.78-.56-.78Z"/>
      <g>
        <path class="cls-2" d="m67.55,23.94c1.21-2.93,1.37-4.57,7.56-7.77,4.99-2.58,6.53-7.13,6.53-7.13-3.42,5.37-10.11,6.98-10.11,6.98-9.34,0-8.99,13.68-8.99,13.68,0,0,3.37-1.77,5.01-5.76Z"/>
        <path class="cls-2" d="m77.16,26.27c.82-1.13,1.32-.52,2.47-2.12,1.15-1.6,2.57-6.9,2.57-6.9,0,0-1.27,2.19-1.74,3.98-.47,1.79-1.98,2.73-1.98,2.73.12-1.96-1.65-4-1.65-4-1.84.85-6.53,7.4-6.53,7.4-3.02,5.47-7.02,6.03-7.02,6.03,5.3,1.41,13.05-5.98,13.88-7.11Z"/>
        <path class="cls-2" d="m77.84,34.19c1.27-2.07,1.7-3.84,1.7-3.84-4.74,5.04-11.99,5.54-11.99,5.54,13.78,2.57,16.11-5.14,16.11-5.14-2.94,3.2-5.82,3.44-5.82,3.44Z"/>
        <path class="cls-2" d="m59.4,23.38c.41-2.66,4.4-7.18,4.4-7.18,0,0-4.15,3.91-4.87,5.39-.72,1.48-1.7,2.73,1.04,8.4,0,0-.97-3.94-.57-6.61Z"/>
        <path class="cls-2" d="m57.65,30.56s-.44,2.4,2.59,2.43c0,0-1.65-.97-2.59-2.43Z"/>
        <path class="cls-2" d="m64.59,38.41s1.32.77,3.44.91c0,0,1.35,0,2.39-.38,0,0-3.88-.38-6.14-1.06,0,0,0,.38.31.53Z"/>
      </g>
    </g>
    <path id="swoosh" class="cls-5" d="m41.41,21.9S10.63,30.47,9,30.61s-4.33-.27-4.75-2.87c-.42-2.6.87-4.7.89-4.8,0,0-6.29,6.82-4.95,11.09,1.34,4.27,7.17,2.49,7.98,2.27.82-.22,32.9-14.2,33.24-14.4Z"/>
  </g>
</svg>