<?xml version="1.0" encoding="utf-8"?>
<!-- Generator: Adobe Illustrator 27.5.0, SVG Export Plug-In . SVG Version: 6.00 Build 0)  -->
<svg version="1.1" id="Layer_2_00000092436779008418902030000010338078174465050544_"
	 xmlns="http://www.w3.org/2000/svg" xmlns:xlink="http://www.w3.org/1999/xlink" x="0px" y="0px" viewBox="0 0 186.7 48.7"
	 style="enable-background:new 0 0 186.7 48.7;" xml:space="preserve">
<style type="text/css">
	.st0{enable-background:new    ;}
	.st1{fill:#E7B23D;}
	.st2{fill:#FFFFFF;}
	.st3{fill:#2C2B2C;}
	.st4{fill:#5C5756;}
	.st5{clip-path:url(#SVGID_00000050657675379178684630000016057488093521176731_);fill:#E66624;}
	.st6{clip-path:url(#SVGID_00000050657675379178684630000016057488093521176731_);fill:#E66724;}
	.st7{clip-path:url(#SVGID_00000050657675379178684630000016057488093521176731_);fill:#E66824;}
	.st8{clip-path:url(#SVGID_00000050657675379178684630000016057488093521176731_);fill:#E76924;}
	.st9{clip-path:url(#SVGID_00000050657675379178684630000016057488093521176731_);fill:#E76A24;}
	.st10{clip-path:url(#SVGID_00000050657675379178684630000016057488093521176731_);fill:#E56325;}
	.st11{clip-path:url(#SVGID_00000050657675379178684630000016057488093521176731_);fill:#E56425;}
	.st12{clip-path:url(#SVGID_00000050657675379178684630000016057488093521176731_);fill:#E66524;}
	.st13{clip-path:url(#SVGID_00000050657675379178684630000016057488093521176731_);fill:#E76B24;}
	.st14{clip-path:url(#SVGID_00000050657675379178684630000016057488093521176731_);fill:#E86C24;}
	.st15{clip-path:url(#SVGID_00000050657675379178684630000016057488093521176731_);fill:#E86D24;}
	.st16{clip-path:url(#SVGID_00000050657675379178684630000016057488093521176731_);fill:#E86E23;}
	.st17{clip-path:url(#SVGID_00000050657675379178684630000016057488093521176731_);fill:#E96F23;}
	.st18{clip-path:url(#SVGID_00000050657675379178684630000016057488093521176731_);fill:#E97023;}
	.st19{clip-path:url(#SVGID_00000050657675379178684630000016057488093521176731_);fill:#E97123;}
	.st20{clip-path:url(#SVGID_00000050657675379178684630000016057488093521176731_);fill:#EA7223;}
	.st21{clip-path:url(#SVGID_00000050657675379178684630000016057488093521176731_);fill:#EA7323;}
	.st22{clip-path:url(#SVGID_00000050657675379178684630000016057488093521176731_);fill:#EA7423;}
	.st23{clip-path:url(#SVGID_00000050657675379178684630000016057488093521176731_);fill:#EB7523;}
	.st24{clip-path:url(#SVGID_00000050657675379178684630000016057488093521176731_);fill:#EB7622;}
	.st25{clip-path:url(#SVGID_00000050657675379178684630000016057488093521176731_);fill:#EB7722;}
	.st26{clip-path:url(#SVGID_00000050657675379178684630000016057488093521176731_);fill:#E46025;}
	.st27{clip-path:url(#SVGID_00000050657675379178684630000016057488093521176731_);fill:#E46125;}
	.st28{clip-path:url(#SVGID_00000050657675379178684630000016057488093521176731_);fill:#E56225;}
	.st29{clip-path:url(#SVGID_00000050657675379178684630000016057488093521176731_);fill:#EB7822;}
	.st30{clip-path:url(#SVGID_00000050657675379178684630000016057488093521176731_);fill:#EC7922;}
	.st31{clip-path:url(#SVGID_00000050657675379178684630000016057488093521176731_);fill:#EC7A22;}
	.st32{clip-path:url(#SVGID_00000050657675379178684630000016057488093521176731_);fill:#EC7B22;}
	.st33{clip-path:url(#SVGID_00000050657675379178684630000016057488093521176731_);fill:#ED7C22;}
	.st34{clip-path:url(#SVGID_00000050657675379178684630000016057488093521176731_);fill:#ED7D22;}
	.st35{clip-path:url(#SVGID_00000050657675379178684630000016057488093521176731_);fill:#ED7E22;}
	.st36{clip-path:url(#SVGID_00000050657675379178684630000016057488093521176731_);fill:#EE8021;}
	.st37{clip-path:url(#SVGID_00000050657675379178684630000016057488093521176731_);fill:#EE8121;}
	.st38{clip-path:url(#SVGID_00000050657675379178684630000016057488093521176731_);fill:#EE8221;}
	.st39{clip-path:url(#SVGID_00000050657675379178684630000016057488093521176731_);fill:#EF8321;}
	.st40{clip-path:url(#SVGID_00000050657675379178684630000016057488093521176731_);fill:#EF8421;}
	.st41{clip-path:url(#SVGID_00000050657675379178684630000016057488093521176731_);fill:#EF8521;}
	.st42{clip-path:url(#SVGID_00000050657675379178684630000016057488093521176731_);fill:#F08621;}
	.st43{clip-path:url(#SVGID_00000050657675379178684630000016057488093521176731_);fill:#F08721;}
	.st44{clip-path:url(#SVGID_00000050657675379178684630000016057488093521176731_);fill:#F08821;}
	.st45{clip-path:url(#SVGID_00000050657675379178684630000016057488093521176731_);fill:#F08920;}
	.st46{clip-path:url(#SVGID_00000050657675379178684630000016057488093521176731_);fill:#F18A20;}
	.st47{clip-path:url(#SVGID_00000050657675379178684630000016057488093521176731_);fill:#F18B20;}
	.st48{clip-path:url(#SVGID_00000050657675379178684630000016057488093521176731_);fill:#F18C20;}
	.st49{clip-path:url(#SVGID_00000050657675379178684630000016057488093521176731_);fill:#F28D20;}
	.st50{clip-path:url(#SVGID_00000050657675379178684630000016057488093521176731_);fill:#F28E20;}
	.st51{clip-path:url(#SVGID_00000050657675379178684630000016057488093521176731_);fill:#F28F20;}
	.st52{clip-path:url(#SVGID_00000050657675379178684630000016057488093521176731_);fill:#F39020;}
	.st53{clip-path:url(#SVGID_00000050657675379178684630000016057488093521176731_);fill:#F3911F;}
	.st54{clip-path:url(#SVGID_00000050657675379178684630000016057488093521176731_);fill:#F3921F;}
	.st55{clip-path:url(#SVGID_00000050657675379178684630000016057488093521176731_);fill:#F4931F;}
	.st56{clip-path:url(#SVGID_00000050657675379178684630000016057488093521176731_);fill:#F4941F;}
	.st57{clip-path:url(#SVGID_00000050657675379178684630000016057488093521176731_);fill:#F4951F;}
	.st58{clip-path:url(#SVGID_00000050657675379178684630000016057488093521176731_);fill:#F5961F;}
	.st59{clip-path:url(#SVGID_00000050657675379178684630000016057488093521176731_);fill:#F5971F;}
	.st60{clip-path:url(#SVGID_00000050657675379178684630000016057488093521176731_);fill:#F5981F;}
	.st61{clip-path:url(#SVGID_00000050657675379178684630000016057488093521176731_);fill:#F5991F;}
	.st62{clip-path:url(#SVGID_00000050657675379178684630000016057488093521176731_);fill:#F69A1E;}
	.st63{clip-path:url(#SVGID_00000050657675379178684630000016057488093521176731_);fill:#F69B1E;}
	.st64{clip-path:url(#SVGID_00000050657675379178684630000016057488093521176731_);fill:#F69C1E;}
	.st65{clip-path:url(#SVGID_00000050657675379178684630000016057488093521176731_);fill:#F79D1E;}
	.st66{clip-path:url(#SVGID_00000050657675379178684630000016057488093521176731_);fill:#F79E1E;}
	.st67{fill:#F8D406;}
	.st68{fill:#F8D705;}
</style>
<g id="Layer_1-2">
	<g class="st0">
		<path class="st1" d="M101.3,16.9v-3.7h1.7c0.3,0,0.6,0,0.8,0.1s0.3,0.2,0.4,0.4c0.1,0.2,0.2,0.4,0.2,0.6c0,0.3-0.1,0.5-0.3,0.7
			c-0.2,0.2-0.4,0.3-0.8,0.3c0.1,0.1,0.2,0.1,0.3,0.2c0.1,0.1,0.3,0.3,0.4,0.5l0.6,1H104l-0.5-0.8c-0.1-0.2-0.3-0.4-0.4-0.5
			c-0.1-0.1-0.2-0.2-0.3-0.2s-0.1-0.1-0.2-0.1c-0.1,0-0.1,0-0.3,0h-0.6v1.7H101.3z M101.8,14.8h1.1c0.2,0,0.4,0,0.5-0.1
			s0.2-0.1,0.3-0.2s0.1-0.2,0.1-0.3c0-0.2-0.1-0.3-0.2-0.4c-0.1-0.1-0.3-0.2-0.6-0.2h-1.2V14.8z"/>
		<path class="st1" d="M114,13.2h0.5v2.2c0,0.4,0,0.7-0.1,0.9c-0.1,0.2-0.2,0.4-0.5,0.5c-0.2,0.1-0.5,0.2-0.9,0.2
			c-0.3,0-0.6-0.1-0.9-0.2c-0.2-0.1-0.4-0.3-0.5-0.5c-0.1-0.2-0.1-0.5-0.1-0.9v-2.2h0.5v2.2c0,0.3,0,0.6,0.1,0.7s0.2,0.3,0.3,0.4
			s0.3,0.1,0.5,0.1c0.4,0,0.6-0.1,0.8-0.2c0.2-0.2,0.2-0.5,0.2-0.9V13.2z"/>
		<path class="st1" d="M121.7,15.7l0.5,0c0,0.2,0.1,0.3,0.2,0.5c0.1,0.1,0.2,0.2,0.4,0.3c0.2,0.1,0.4,0.1,0.6,0.1
			c0.2,0,0.4,0,0.5-0.1c0.1-0.1,0.3-0.1,0.3-0.2s0.1-0.2,0.1-0.3c0-0.1,0-0.2-0.1-0.3c-0.1-0.1-0.2-0.2-0.3-0.2
			c-0.1,0-0.3-0.1-0.7-0.2s-0.6-0.2-0.7-0.2c-0.2-0.1-0.3-0.2-0.4-0.3c-0.1-0.1-0.1-0.3-0.1-0.5c0-0.2,0.1-0.4,0.2-0.5
			c0.1-0.2,0.3-0.3,0.5-0.4s0.4-0.1,0.7-0.1c0.3,0,0.5,0,0.7,0.1s0.4,0.2,0.5,0.4c0.1,0.2,0.2,0.4,0.2,0.6l-0.5,0
			c0-0.2-0.1-0.4-0.3-0.5c-0.1-0.1-0.4-0.2-0.6-0.2c-0.3,0-0.5,0.1-0.7,0.2c-0.1,0.1-0.2,0.2-0.2,0.4c0,0.1,0,0.2,0.1,0.3
			c0.1,0.1,0.3,0.2,0.7,0.3c0.4,0.1,0.7,0.2,0.8,0.2c0.2,0.1,0.4,0.2,0.5,0.4c0.1,0.2,0.2,0.3,0.2,0.5c0,0.2-0.1,0.4-0.2,0.6
			c-0.1,0.2-0.3,0.3-0.5,0.4s-0.5,0.1-0.7,0.1c-0.3,0-0.6,0-0.8-0.1c-0.2-0.1-0.4-0.2-0.5-0.4C121.7,16.2,121.7,16,121.7,15.7z"/>
		<path class="st1" d="M131.8,16.9v-3.7h0.5v1.5h1.9v-1.5h0.5v3.7h-0.5v-1.8h-1.9v1.8H131.8z"/>
		<path class="st1" d="M141.9,15.1c0-0.6,0.2-1.1,0.5-1.5c0.3-0.3,0.8-0.5,1.3-0.5c0.3,0,0.7,0.1,0.9,0.2s0.5,0.4,0.6,0.7
			c0.1,0.3,0.2,0.6,0.2,1c0,0.4-0.1,0.7-0.2,1c-0.2,0.3-0.4,0.5-0.6,0.7c-0.3,0.2-0.6,0.2-0.9,0.2c-0.4,0-0.7-0.1-0.9-0.3
			c-0.3-0.2-0.5-0.4-0.6-0.7C142,15.7,141.9,15.4,141.9,15.1z M142.5,15.1c0,0.4,0.1,0.8,0.4,1.1c0.2,0.3,0.5,0.4,0.9,0.4
			c0.4,0,0.7-0.1,0.9-0.4c0.2-0.3,0.4-0.6,0.4-1.1c0-0.3-0.1-0.6-0.2-0.8s-0.3-0.4-0.5-0.5c-0.2-0.1-0.4-0.2-0.7-0.2
			c-0.3,0-0.6,0.1-0.9,0.4S142.5,14.5,142.5,15.1z"/>
		<path class="st1" d="M152.6,16.9v-3.7h0.5v3.3h1.8v0.4H152.6z"/>
		<path class="st1" d="M162.1,16.9v-3.7h0.7l0.9,2.6c0.1,0.2,0.1,0.4,0.2,0.6c0-0.1,0.1-0.3,0.2-0.6l0.9-2.6h0.7v3.7h-0.5v-3.1
			l-1.1,3.1h-0.4l-1.1-3.2v3.2H162.1z"/>
		<path class="st1" d="M172.9,16.9v-3.7h2.7v0.4h-2.2v1.1h2.1v0.4h-2.1v1.3h2.3v0.4H172.9z"/>
	</g>
	<g class="st0">
		<path class="st2" d="M110.8,42.1h-3.2l-1.4-8.2l-0.7,0.9l-0.3,0.3v1.8v1.5v3.7h-3.1v-1.5v-1.8v-0.3v-3.6v-0.1v-5.5v-3.5v-1.9v-3.8
			h3.1h2.1h3.1v3.8v1.1v0.8v3.1v0.4v1.4l-1.4,1.7L110.8,42.1z M107.3,23.8h-0.7h-1.5v1.9v3.5v1v0.9l0.2-0.2l1.4-1.7l0.5-0.6v-2.3
			v-0.5V23.8z"/>
		<path class="st2" d="M117.6,20.1h1.3v3.6h-1.3h-2.7v2.1v3.4v1.5v0l0,0l1.3-1.5l1.4-1.6v1.6v1.5v0.7l-0.1,0.1l-2.6,3.1v0.6v1.6v1.8
			h2.7h1.3v3.5h-1.3h-2.7h-3.1v-3.5v-0.3v-1.5v-1.6v-0.8v-2.9v-0.8v-1.5v-3.4v-2.1v-3.6h3.1H117.6z"/>
		<path class="st2" d="M126.3,20.1h3.1v3.8v1.9v3.5v5.5v3.7v3.7h-2.9l-0.1-0.7l-0.7-3l-0.9-3.7l-1.2-5v5v3.7v3.7h-3.1v-3.7v-3.7
			v-5.5v-3.5v-1.9v-3.8h3.1h0l0.9,3.8l0.5,1.9l0.8,3.5l0.6,2.4v-2.4v-3.5v-1.9V20.1z"/>
		<path class="st2" d="M139.3,20.1v3.6v2.1v3.4v1.5v0.8v3.7v1.6v1.8v3.5h-3.1h-1.6l-0.7-1.5l-0.7,1.5h-2.4v-3.5v-1.8v-1.6v-3.7v-0.8
			v-1.5v-3.4v-2.1v-3.6h2.4l0.7,1.5l0.7-1.5h1.6H139.3z M136.2,23.7H134v2.1v3.4v1.5v0.8v3.7v1.6v1.8h2.3v-1.8v-1.6v-3.7v-0.8v-1.5
			v-3.4V23.7z"/>
		<path class="st2" d="M145.7,20.1h3.1v1.8v1.8v2.1v0.5v2.7v1.6v4.3V37v1.7v3.3h-3.1h-1.8h-3.1v-3.3V37v-1.9v-4.3v-1.6v-2.7v-0.5
			v-2.1v-1.8v-1.8h3.1v1.8v1.8v2.1v0.5v2.7v1.6v4.3V37v1.7h1.8V37v-1.9v-4.3v-1.6v-2.7v-0.5v-2.1v-1.8V20.1z"/>
		<path class="st2" d="M156.2,20.1h3.1v3.8v1.9v3.5v5.5v3.7v3.7h-2.9l-0.1-0.7l-0.7-3l-0.9-3.7l-1.2-5v5v3.7v3.7h-3.1v-3.7v-3.7
			v-5.5v-3.5v-1.9v-3.8h3.1h0l0.9,3.8l0.5,1.9l0.8,3.5l0.6,2.4v-2.4v-3.5v-1.9V20.1z"/>
	</g>
	<g class="st0">
		<path class="st2" d="M169.6,38.4l1.2,3.7h-1.7h-1.6l-1.2-3.7l-0.3-0.8l-0.9-2.8l-0.3-0.9l-0.4-1.3l-0.6,0.7v1.4v0.3v3.3v3.7h-3.1
			v-3.3v-0.3V37v-2.2v-1.6v-3.8v-3.5v-1.9v-3.8h3.1v3.8v1.9v3.5v0.2l0.2-0.2l1.9-2.3l0.2-0.2v-1v-1.9v-3.8h3.1v3v0.7v1.9V27v1.4
			l-0.4,0.5l-1.5,1.8l1.2,4.1l0.7,2.2L169.6,38.4z"/>
	</g>
	<g class="st0">
		<path class="st2" d="M176.5,20.1h3.1v1.8v1.8v2.1v0.5h-3.1v-0.5v-2.1h-1.8v2.1v0.5v1.1l1.8,1.7h0l1.9,1.6l1.2,1.1v3.3v1.3V37v1.7
			v3.3h-3.1h-1.8h-3.1v-3.3V37v-1.9h3.1V37v1.7h1.8V37v-1.9v-1.4l-1.8-1.6l-1.4-1.3l-1.7-1.5v-0.2v-2.7v-0.5v-1.1v-1v-1.8v-1.8h3.1
			H176.5z"/>
	</g>
	<g>
		<g>
			<path class="st3" d="M69.1,42.5c-8.6,0-15.5-7-15.5-15.5s7-15.5,15.5-15.5c5,0,9.7,2.4,12.6,6.5c3.6-1.3,7.8-2.6,9.9-3.2l0.5-0.1
				c0.6-0.2,1.1-0.2,1.6-0.2c1.6,0,2.6,1,2.6,2.8c0.1,0.4-0.1,1.6-2.8,2.8L89,21.8c-2.1,0.9-4,1.7-4.8,2c0,0.2,0.1,0.4,0.1,0.6
				c0,0,0,0,0,0.1c0.1,0.8,0.2,1.7,0.2,2.5C84.6,35.6,77.6,42.5,69.1,42.5L69.1,42.5z"/>
		</g>
		<g>
			<path class="st4" d="M68.7,13.6c4.3-0.1,8.2,1.4,10.8,3.8c-2.2-2.8-6.3-4.7-10.8-4.5C64,13,60,15.2,58,18.3
				C60.5,15.6,64.3,13.7,68.7,13.6L68.7,13.6z"/>
		</g>
		<g>
			<path class="st4" d="M69,40.5c-4,0-7.5-1.3-9.9-3.3c2.2,2.4,5.8,4,10,4c4.6,0,8.7-2,10.7-4.9C77.5,38.8,73.5,40.5,69,40.5z"/>
		</g>
		<g>
			<g>
				<defs>
					<path id="SVGID_1_" d="M94.2,16.6c0.2,0.7-0.1,0.7-0.1,0.7L92.4,18c0,0-0.1,0.1-0.3,0.1c-0.2,0-0.3-0.1-0.5-0.4
						c-0.2-0.7-0.1-0.7-0.1-0.7s0.3-0.2,0.8-0.4c0.5-0.2,1-0.3,1-0.3s0.1,0,0.2,0C93.8,16.1,94,16.2,94.2,16.6z M96.5,18.7
						c-0.5,0.7-1.4,1.4-2.7,1.9c0,0,0,0,0,0l-4.4,1.8c-1.7,0.8-3.3,1.4-4.3,1.8l0,0c0,0,0,0.1,0,0.1c0.1,0.7,0.2,1.3,0.2,2
						c1.2-0.9,2.2-0.7,2.2-0.7c-1.6,1.6-2.3,3.5-2.3,3.5l-0.1,0.2c-0.2,1.4-0.6,2.7-1.1,4c-0.8,1.9-2,3.7-3.5,5.2
						C79,40,77.3,41.1,75.3,42c-0.9,0.4-1.9,0.7-2.8,0.9c3.8,0,7.3-1.2,10.3-3.1c-3.3,2.7-7.6,4.4-12.3,4.4
						c-10.6,0-19.2-8.5-19.2-19.1c0-2,0.3-4,0.9-5.8C52,20.5,52,21.8,52,23.1c0,2.1,0.3,4.1,1,5.9c-0.1-0.7-0.1-1.3-0.1-2
						c0-2.2,0.4-4.3,1.3-6.3c0.8-1.9,2-3.7,3.5-5.2c1.5-1.5,3.2-2.7,5.2-3.5c2-0.9,4.1-1.3,6.3-1.3c0.4,0,0.9,0,1.3,0.1
						c4.2-2.6,7.3-5,5-6.2c0,0,6.1,0.5-2.6,6.5c1,0.2,2,0.6,3,1c3.1-2.3,7.8-5.2,8.4-8c0.2-0.9,0.8-2.5-8.5-4c0,0,23.8-3.1,3.8,14.1
						c0,0-0.1,0.1-0.2,0.1c0.7,0.6,1.3,1.2,1.9,1.9c1.1-2.2,3-4.4,5.8-4c0,0-1.6,0.9-3.1,4.1c2.9-1,5.8-1.8,7.4-2.3
						c0.2-0.1,0.3-0.1,0.5-0.1c0.6-0.2,1.2-0.3,1.7-0.3c2,0,3.3,1.3,3.3,3.5C97,17.5,96.9,18,96.5,18.7L96.5,18.7z M95.6,17.3
						L95.6,17.3c0-1.4-0.6-2.2-1.9-2.2c-0.4,0-0.8,0.1-1.4,0.2c-1.7,0.5-5.5,1.6-9,2.8c-0.3,0.7-0.5,1.5-0.7,2.5
						c0,0-3.6,14-19.2,13.9c0,0-0.9,0.1-0.9-0.5c0,0,0-0.6-0.2-0.9c0,0,2.4-0.5,4.1-2.4c1.7-1.9,6.8-10.2,11.2-13
						c0,0,1.6,1.2,2.4,2.8c0,0,0.2-1.2,0.8-2.6c-0.7-0.9-1.5-1.7-2.4-2.4c-1.8,1.5-5.2,4.3-7.3,7.2c-2,2.7-2.4,2.9-4.1,5.3
						s-2.8,3.6-4.8,3.9c0,0-1.3-6.6,0.9-11s6.8-6.9,9.2-6c0,0,0.9-0.6,2.3-1.6c-1.1-0.4-2.2-0.7-3.4-0.9c-0.6,0.4-1.3,0.8-2.1,1.3
						c0,0-10.6,3.9-8.3,17.4c0,0,0,0.2-0.1,0.3c-0.1,0.1-3.3-2.2-3.4-8.3c0,0,1.2-4.7,7.3-8.5c1.2-0.7,2.5-1.5,3.7-2.3
						c-7.8,0.5-14,6.9-14,14.8c0,4,1.6,7.7,4.3,10.4c1.2,1.1,2.6,2.1,4.1,3c0.2,0.1,0.4,0.2,0.7,0.3c0,0,0,0,0,0
						c1.8,0.8,3.7,1.2,5.8,1.2c5.5,0,10.2-3,12.8-7.3C75.3,39.9,63.1,36,63.1,36c-0.3-0.4,0.1-0.3,0.1-0.3
						c14.5,0.1,18.3-10.4,18.3-10.4c0.6,3.7-1,7.1-1,7.1c0.4,0.5,2.7-3.4,2.7-3.4c0.2-0.4,0.4-0.8,0.7-1.1c0-0.3,0-0.6,0-0.9
						c0-0.8-0.1-1.6-0.2-2.4l0,0c0,0,0,0,0,0c0-0.2-0.1-0.4-0.1-0.6c0-0.3,0-0.6,0.1-0.6c0,0,2.4-1,5.1-2.2l4.4-1.8
						C95.8,18.2,95.6,17.2,95.6,17.3L95.6,17.3z M64.3,38.6c0,0,5.1,2,9.5,0c0,0-4.5,0.5-10.3-1.3C63.6,37.3,63.6,38.2,64.3,38.6
						L64.3,38.6z M61.2,33.9L61,33c-0.1-0.4-0.2-0.3-0.2-0.3c-2.9-0.8-4.2-5.3-4.2-5.3c-0.2,2.3,1.2,5,1.2,5c1.1,1.1,2.4,1.5,3,1.7
						C61.3,34.3,61.2,33.9,61.2,33.9L61.2,33.9z M61.3,35.4c-0.2,0-0.7-0.1-1.1-0.3s-0.8-0.2-0.8-0.2c0.2,0.4,1.6,1.7,1.6,1.7
						c0.2,0.2,0.9-0.4,0.9-0.4C61.6,35.3,61.3,35.4,61.3,35.4z"/>
				</defs>
				<clipPath id="SVGID_00000043418151805065272460000012984654006376821162_">
					<use xlink:href="#SVGID_1_"  style="overflow:visible;"/>
				</clipPath>
				<polygon style="clip-path:url(#SVGID_00000043418151805065272460000012984654006376821162_);fill:#E66624;" points="59.4,35.3 
					59.9,36.8 59.4,36.8 				"/>
				<polygon style="clip-path:url(#SVGID_00000043418151805065272460000012984654006376821162_);fill:#E66724;" points="60.1,34.9 
					60.7,36.8 59.9,36.8 59.4,35.3 59.4,34.9 				"/>
				<polygon style="clip-path:url(#SVGID_00000043418151805065272460000012984654006376821162_);fill:#E66824;" points="60.9,34.9 
					61.5,36.8 60.7,36.8 60.1,34.9 				"/>
				<polygon style="clip-path:url(#SVGID_00000043418151805065272460000012984654006376821162_);fill:#E76924;" points="61.7,34.9 
					61.8,35.3 61.8,36.8 61.5,36.8 60.9,34.9 				"/>
				<polygon style="clip-path:url(#SVGID_00000043418151805065272460000012984654006376821162_);fill:#E76A24;" points="61.8,35.3 
					61.7,34.9 61.8,34.9 				"/>
				<polygon style="clip-path:url(#SVGID_00000043418151805065272460000012984654006376821162_);fill:#E56325;" points="56.4,33.8 
					56.6,34.3 56.4,34.3 				"/>
				<polygon style="clip-path:url(#SVGID_00000043418151805065272460000012984654006376821162_);fill:#E56425;" points="56.4,31.3 
					57.4,34.3 56.6,34.3 56.4,33.8 				"/>
				<polygon style="clip-path:url(#SVGID_00000043418151805065272460000012984654006376821162_);fill:#E66524;" points="56.4,28.8 
					58.2,34.3 57.4,34.3 56.4,31.3 				"/>
				<polygon style="clip-path:url(#SVGID_00000043418151805065272460000012984654006376821162_);fill:#E66624;" points="56.7,27.4 
					59,34.3 58.2,34.3 56.4,28.8 56.4,27.4 				"/>
				<polygon style="clip-path:url(#SVGID_00000043418151805065272460000012984654006376821162_);fill:#E66724;" points="57.5,27.4 
					59.9,34.3 59,34.3 56.7,27.4 				"/>
				<polygon style="clip-path:url(#SVGID_00000043418151805065272460000012984654006376821162_);fill:#E66824;" points="58.4,27.4 
					60.7,34.3 59.9,34.3 57.5,27.4 				"/>
				<polygon style="clip-path:url(#SVGID_00000043418151805065272460000012984654006376821162_);fill:#E76924;" points="59.2,27.4 
					61.3,33.8 61.3,34.3 60.7,34.3 58.4,27.4 				"/>
				<polygon style="clip-path:url(#SVGID_00000043418151805065272460000012984654006376821162_);fill:#E76A24;" points="60,27.4 
					61.3,31.3 61.3,33.8 59.2,27.4 				"/>
				<polygon style="clip-path:url(#SVGID_00000043418151805065272460000012984654006376821162_);fill:#E76B24;" points="60.8,27.4 
					61.3,28.9 61.3,31.3 60,27.4 				"/>
				<polygon style="clip-path:url(#SVGID_00000043418151805065272460000012984654006376821162_);fill:#E86C24;" points="61.3,28.9 
					60.8,27.4 61.3,27.4 				"/>
				<polygon style="clip-path:url(#SVGID_00000043418151805065272460000012984654006376821162_);fill:#E76924;" points="63.6,40.6 
					63.6,40.7 63.6,40.7 				"/>
				<polygon style="clip-path:url(#SVGID_00000043418151805065272460000012984654006376821162_);fill:#E76A24;" points="63.6,38.1 
					64.4,40.7 63.6,40.7 63.6,40.6 				"/>
				<polygon style="clip-path:url(#SVGID_00000043418151805065272460000012984654006376821162_);fill:#E76B24;" points="64.1,37.3 
					65.3,40.7 64.4,40.7 63.6,38.1 63.6,37.3 				"/>
				<polygon style="clip-path:url(#SVGID_00000043418151805065272460000012984654006376821162_);fill:#E86C24;" points="65,37.3 
					66.1,40.7 65.3,40.7 64.1,37.3 				"/>
				<polygon style="clip-path:url(#SVGID_00000043418151805065272460000012984654006376821162_);fill:#E86D24;" points="65.8,37.3 
					66.9,40.7 66.1,40.7 65,37.3 				"/>
				<polygon style="clip-path:url(#SVGID_00000043418151805065272460000012984654006376821162_);fill:#E86E23;" points="66.6,37.3 
					67.7,40.7 66.9,40.7 65.8,37.3 				"/>
				<polygon style="clip-path:url(#SVGID_00000043418151805065272460000012984654006376821162_);fill:#E96F23;" points="67.4,37.3 
					68.5,40.7 67.7,40.7 66.6,37.3 				"/>
				<polygon style="clip-path:url(#SVGID_00000043418151805065272460000012984654006376821162_);fill:#E97023;" points="68.2,37.3 
					69.4,40.7 68.5,40.7 67.4,37.3 				"/>
				<polygon style="clip-path:url(#SVGID_00000043418151805065272460000012984654006376821162_);fill:#E97123;" points="69.1,37.3 
					70.2,40.7 69.4,40.7 68.2,37.3 				"/>
				<polygon style="clip-path:url(#SVGID_00000043418151805065272460000012984654006376821162_);fill:#EA7223;" points="69.9,37.3 
					71,40.7 70.2,40.7 69.1,37.3 				"/>
				<polygon style="clip-path:url(#SVGID_00000043418151805065272460000012984654006376821162_);fill:#EA7323;" points="70.7,37.3 
					71.8,40.7 71,40.7 69.9,37.3 				"/>
				<polygon style="clip-path:url(#SVGID_00000043418151805065272460000012984654006376821162_);fill:#EA7423;" points="71.5,37.3 
					72.6,40.7 71.8,40.7 70.7,37.3 				"/>
				<polygon style="clip-path:url(#SVGID_00000043418151805065272460000012984654006376821162_);fill:#EB7523;" points="72.4,37.3 
					73.5,40.7 72.6,40.7 71.5,37.3 				"/>
				<polygon style="clip-path:url(#SVGID_00000043418151805065272460000012984654006376821162_);fill:#EB7622;" points="73.2,37.3 
					73.9,39.3 73.9,40.7 73.5,40.7 72.4,37.3 				"/>
				<polygon style="clip-path:url(#SVGID_00000043418151805065272460000012984654006376821162_);fill:#EB7722;" points="73.9,39.3 
					73.2,37.3 73.9,37.3 				"/>
				<polygon style="clip-path:url(#SVGID_00000043418151805065272460000012984654006376821162_);fill:#E46025;" points="54.2,37.1 
					55.8,41.8 54.2,41.8 				"/>
				<polygon style="clip-path:url(#SVGID_00000043418151805065272460000012984654006376821162_);fill:#E46025;" points="54.2,34.6 
					56.6,41.8 55.8,41.8 54.2,37.1 				"/>
				<polygon style="clip-path:url(#SVGID_00000043418151805065272460000012984654006376821162_);fill:#E46125;" points="54.2,32.1 
					57.4,41.8 56.6,41.8 54.2,34.6 				"/>
				<polygon style="clip-path:url(#SVGID_00000043418151805065272460000012984654006376821162_);fill:#E56225;" points="54.2,29.7 
					58.3,41.8 57.4,41.8 54.2,32.1 				"/>
				<polygon style="clip-path:url(#SVGID_00000043418151805065272460000012984654006376821162_);fill:#E56325;" points="54.2,27.2 
					59.1,41.8 58.3,41.8 54.2,29.7 				"/>
				<polygon style="clip-path:url(#SVGID_00000043418151805065272460000012984654006376821162_);fill:#E56425;" points="54.2,24.7 
					59.9,41.8 59.1,41.8 54.2,27.2 				"/>
				<polygon style="clip-path:url(#SVGID_00000043418151805065272460000012984654006376821162_);fill:#E66524;" points="54.2,22.3 
					60.7,41.8 59.9,41.8 54.2,24.7 				"/>
				<polygon style="clip-path:url(#SVGID_00000043418151805065272460000012984654006376821162_);fill:#E66624;" points="54.2,19.8 
					61.5,41.8 60.7,41.8 54.2,22.3 				"/>
				<polygon style="clip-path:url(#SVGID_00000043418151805065272460000012984654006376821162_);fill:#E66724;" points="54.2,17.3 
					62.4,41.8 61.5,41.8 54.2,19.8 				"/>
				<polygon style="clip-path:url(#SVGID_00000043418151805065272460000012984654006376821162_);fill:#E66824;" points="54.2,14.9 
					63.2,41.8 62.4,41.8 54.2,17.3 				"/>
				<polygon style="clip-path:url(#SVGID_00000043418151805065272460000012984654006376821162_);fill:#E76924;" points="54.2,12.6 
					54.3,12.6 64,41.8 63.2,41.8 54.2,14.9 				"/>
				<polygon style="clip-path:url(#SVGID_00000043418151805065272460000012984654006376821162_);fill:#E76A24;" points="54.3,12.6 
					55,12.3 64.8,41.8 64,41.8 				"/>
				<polygon style="clip-path:url(#SVGID_00000043418151805065272460000012984654006376821162_);fill:#E76B24;" points="55,12.3 
					55.4,12.2 55.8,12.2 65.6,41.8 64.8,41.8 				"/>
				<polygon style="clip-path:url(#SVGID_00000043418151805065272460000012984654006376821162_);fill:#E86C24;" points="56.6,12.2 
					66.5,41.8 65.6,41.8 55.8,12.2 				"/>
				<polygon style="clip-path:url(#SVGID_00000043418151805065272460000012984654006376821162_);fill:#E86D24;" points="57.4,12.2 
					67.3,41.8 66.5,41.8 56.6,12.2 				"/>
				<polygon style="clip-path:url(#SVGID_00000043418151805065272460000012984654006376821162_);fill:#E86E23;" points="58.2,12.2 
					68.1,41.8 67.3,41.8 57.4,12.2 				"/>
				<polygon style="clip-path:url(#SVGID_00000043418151805065272460000012984654006376821162_);fill:#E96F23;" points="59.1,12.2 
					68.9,41.8 68.1,41.8 58.2,12.2 				"/>
				<polygon style="clip-path:url(#SVGID_00000043418151805065272460000012984654006376821162_);fill:#E97023;" points="59.9,12.2 
					69.8,41.8 68.9,41.8 59.1,12.2 				"/>
				<polygon style="clip-path:url(#SVGID_00000043418151805065272460000012984654006376821162_);fill:#E97123;" points="60.7,12.2 
					70.6,41.8 69.8,41.8 59.9,12.2 				"/>
				<polygon style="clip-path:url(#SVGID_00000043418151805065272460000012984654006376821162_);fill:#EA7223;" points="61.5,12.2 
					71.4,41.8 70.6,41.8 60.7,12.2 				"/>
				<polygon style="clip-path:url(#SVGID_00000043418151805065272460000012984654006376821162_);fill:#EA7323;" points="62.4,12.2 
					72.2,41.8 71.4,41.8 61.5,12.2 				"/>
				<polygon style="clip-path:url(#SVGID_00000043418151805065272460000012984654006376821162_);fill:#EA7423;" points="63.2,12.2 
					73,41.8 72.2,41.8 62.4,12.2 				"/>
				<polygon style="clip-path:url(#SVGID_00000043418151805065272460000012984654006376821162_);fill:#EB7523;" points="64,12.2 
					73.9,41.8 73,41.8 63.2,12.2 				"/>
				<polygon style="clip-path:url(#SVGID_00000043418151805065272460000012984654006376821162_);fill:#EB7622;" points="64.8,12.2 
					74.7,41.8 73.9,41.8 64,12.2 				"/>
				<polygon style="clip-path:url(#SVGID_00000043418151805065272460000012984654006376821162_);fill:#EB7722;" points="65.6,12.2 
					75.5,41.8 74.7,41.8 64.8,12.2 				"/>
				<polygon style="clip-path:url(#SVGID_00000043418151805065272460000012984654006376821162_);fill:#EB7822;" points="66.5,12.2 
					76.3,41.8 75.5,41.8 65.6,12.2 				"/>
				<polygon style="clip-path:url(#SVGID_00000043418151805065272460000012984654006376821162_);fill:#EC7922;" points="67.3,12.2 
					77.1,41.8 76.3,41.8 66.5,12.2 				"/>
				<polygon style="clip-path:url(#SVGID_00000043418151805065272460000012984654006376821162_);fill:#EC7A22;" points="68.1,12.2 
					78,41.8 77.1,41.8 67.3,12.2 				"/>
				<polygon style="clip-path:url(#SVGID_00000043418151805065272460000012984654006376821162_);fill:#EC7B22;" points="68.9,12.2 
					78.8,41.8 78,41.8 68.1,12.2 				"/>
				<polygon style="clip-path:url(#SVGID_00000043418151805065272460000012984654006376821162_);fill:#ED7C22;" points="69.7,12.2 
					79.6,41.8 78.8,41.8 68.9,12.2 				"/>
				<polygon style="clip-path:url(#SVGID_00000043418151805065272460000012984654006376821162_);fill:#ED7D22;" points="70.6,12.2 
					80.4,41.8 79.6,41.8 69.7,12.2 				"/>
				<polygon style="clip-path:url(#SVGID_00000043418151805065272460000012984654006376821162_);fill:#ED7E22;" points="71.4,12.2 
					81.2,41.7 80.9,41.8 80.4,41.8 70.6,12.2 				"/>
				<polygon style="clip-path:url(#SVGID_00000043418151805065272460000012984654006376821162_);fill:#EE8021;" points="72.2,12.2 
					82,41.5 81.2,41.7 71.4,12.2 				"/>
				<polygon style="clip-path:url(#SVGID_00000043418151805065272460000012984654006376821162_);fill:#EE8121;" points="73,12.2 
					82.7,41.2 82,41.5 72.2,12.2 				"/>
				<polygon style="clip-path:url(#SVGID_00000043418151805065272460000012984654006376821162_);fill:#EE8221;" points="73.9,12.2 
					83.4,41 82.7,41.2 73,12.2 				"/>
				<polygon style="clip-path:url(#SVGID_00000043418151805065272460000012984654006376821162_);fill:#EF8321;" points="74.7,12.2 
					84.2,40.7 83.4,41 73.9,12.2 				"/>
				<polygon style="clip-path:url(#SVGID_00000043418151805065272460000012984654006376821162_);fill:#EF8421;" points="75.5,12.2 
					84.9,40.5 84.2,40.7 74.7,12.2 				"/>
				<polygon style="clip-path:url(#SVGID_00000043418151805065272460000012984654006376821162_);fill:#EF8521;" points="76.3,12.2 
					85.6,40.2 84.9,40.5 75.5,12.2 				"/>
				<polygon style="clip-path:url(#SVGID_00000043418151805065272460000012984654006376821162_);fill:#F08621;" points="77.1,12.2 
					86.4,40 85.6,40.2 76.3,12.2 				"/>
				<polygon style="clip-path:url(#SVGID_00000043418151805065272460000012984654006376821162_);fill:#F08721;" points="78,12.2 
					87.1,39.7 86.4,40 77.1,12.2 				"/>
				<polygon style="clip-path:url(#SVGID_00000043418151805065272460000012984654006376821162_);fill:#F08821;" points="78.8,12.2 
					87.9,39.5 87.1,39.7 78,12.2 				"/>
				<polygon style="clip-path:url(#SVGID_00000043418151805065272460000012984654006376821162_);fill:#F08920;" points="79.6,12.2 
					88.6,39.2 87.9,39.5 78.8,12.2 				"/>
				<polygon style="clip-path:url(#SVGID_00000043418151805065272460000012984654006376821162_);fill:#F18A20;" points="80.4,12.2 
					89.3,39 88.6,39.2 79.6,12.2 				"/>
				<polygon style="clip-path:url(#SVGID_00000043418151805065272460000012984654006376821162_);fill:#F18B20;" points="81.2,12.2 
					90.1,38.8 89.3,39 80.4,12.2 				"/>
				<polygon style="clip-path:url(#SVGID_00000043418151805065272460000012984654006376821162_);fill:#F18C20;" points="82.1,12.2 
					90.8,38.5 90.1,38.8 81.2,12.2 				"/>
				<polygon style="clip-path:url(#SVGID_00000043418151805065272460000012984654006376821162_);fill:#F28D20;" points="82.9,12.2 
					91.6,38.3 90.8,38.5 82.1,12.2 				"/>
				<polygon style="clip-path:url(#SVGID_00000043418151805065272460000012984654006376821162_);fill:#F28E20;" points="83.7,12.2 
					92.3,38 91.6,38.3 82.9,12.2 				"/>
				<polygon style="clip-path:url(#SVGID_00000043418151805065272460000012984654006376821162_);fill:#F28F20;" points="84.5,12.2 
					93,37.8 92.3,38 83.7,12.2 				"/>
				<polygon style="clip-path:url(#SVGID_00000043418151805065272460000012984654006376821162_);fill:#F39020;" points="85.3,12.2 
					93.8,37.5 93,37.8 84.5,12.2 				"/>
				<polygon style="clip-path:url(#SVGID_00000043418151805065272460000012984654006376821162_);fill:#F3911F;" points="86.2,12.2 
					94.5,37.3 93.8,37.5 85.3,12.2 				"/>
				<polygon style="clip-path:url(#SVGID_00000043418151805065272460000012984654006376821162_);fill:#F3921F;" points="87,12.2 
					95.3,37 94.5,37.3 86.2,12.2 				"/>
				<polygon style="clip-path:url(#SVGID_00000043418151805065272460000012984654006376821162_);fill:#F4931F;" points="87.8,12.2 
					95.8,36 95.8,36.9 95.3,37 87,12.2 				"/>
				<polygon style="clip-path:url(#SVGID_00000043418151805065272460000012984654006376821162_);fill:#F4941F;" points="88.6,12.2 
					95.8,33.6 95.8,36 87.8,12.2 				"/>
				<polygon style="clip-path:url(#SVGID_00000043418151805065272460000012984654006376821162_);fill:#F4951F;" points="89.5,12.2 
					95.8,31.1 95.8,33.6 88.6,12.2 				"/>
				<polygon style="clip-path:url(#SVGID_00000043418151805065272460000012984654006376821162_);fill:#F5961F;" points="90.3,12.2 
					95.8,28.6 95.8,31.1 89.5,12.2 				"/>
				<polygon style="clip-path:url(#SVGID_00000043418151805065272460000012984654006376821162_);fill:#F5971F;" points="91.1,12.2 
					95.8,26.2 95.8,28.6 90.3,12.2 				"/>
				<polygon style="clip-path:url(#SVGID_00000043418151805065272460000012984654006376821162_);fill:#F5981F;" points="91.9,12.2 
					95.8,23.7 95.8,26.2 91.1,12.2 				"/>
				<polygon style="clip-path:url(#SVGID_00000043418151805065272460000012984654006376821162_);fill:#F5991F;" points="92.7,12.2 
					95.8,21.2 95.8,23.7 91.9,12.2 				"/>
				<polygon style="clip-path:url(#SVGID_00000043418151805065272460000012984654006376821162_);fill:#F69A1E;" points="93.6,12.2 
					95.8,18.8 95.8,21.2 92.7,12.2 				"/>
				<polygon style="clip-path:url(#SVGID_00000043418151805065272460000012984654006376821162_);fill:#F69B1E;" points="94.4,12.2 
					95.8,16.3 95.8,18.8 93.6,12.2 				"/>
				<polygon style="clip-path:url(#SVGID_00000043418151805065272460000012984654006376821162_);fill:#F69C1E;" points="95.2,12.2 
					95.8,13.8 95.8,16.3 94.4,12.2 				"/>
				<polygon style="clip-path:url(#SVGID_00000043418151805065272460000012984654006376821162_);fill:#F79D1E;" points="95.8,13.8 
					95.2,12.2 95.8,12.2 				"/>
				<polygon style="clip-path:url(#SVGID_00000043418151805065272460000012984654006376821162_);fill:#E46025;" points="51.3,28.4 
					56.6,44.2 51.3,44.2 				"/>
				<polygon style="clip-path:url(#SVGID_00000043418151805065272460000012984654006376821162_);fill:#E46025;" points="51.3,25.9 
					57.4,44.2 56.6,44.2 51.3,28.4 				"/>
				<polygon style="clip-path:url(#SVGID_00000043418151805065272460000012984654006376821162_);fill:#E46125;" points="51.3,23.4 
					58.2,44.2 57.4,44.2 51.3,25.9 				"/>
				<polygon style="clip-path:url(#SVGID_00000043418151805065272460000012984654006376821162_);fill:#E56225;" points="51.3,21 
					59,44.2 58.2,44.2 51.3,23.4 				"/>
				<polygon style="clip-path:url(#SVGID_00000043418151805065272460000012984654006376821162_);fill:#E56325;" points="51.3,18.5 
					59.8,44.2 59,44.2 51.3,21 				"/>
				<polygon style="clip-path:url(#SVGID_00000043418151805065272460000012984654006376821162_);fill:#E56425;" points="51.3,16 
					60.7,44.2 59.8,44.2 51.3,18.5 				"/>
				<polygon style="clip-path:url(#SVGID_00000043418151805065272460000012984654006376821162_);fill:#E66524;" points="51.3,13.6 
					61.5,44.2 60.7,44.2 51.3,16 				"/>
				<polygon style="clip-path:url(#SVGID_00000043418151805065272460000012984654006376821162_);fill:#E66624;" points="51.3,11.1 
					62.3,44.2 61.5,44.2 51.3,13.6 				"/>
				<polygon style="clip-path:url(#SVGID_00000043418151805065272460000012984654006376821162_);fill:#E66724;" points="51.3,8.6 
					63.1,44.2 62.3,44.2 51.3,11.1 				"/>
				<polygon style="clip-path:url(#SVGID_00000043418151805065272460000012984654006376821162_);fill:#E66824;" points="51.3,6.2 
					51.3,6.2 64,44.2 63.1,44.2 51.3,8.6 				"/>
				<polygon style="clip-path:url(#SVGID_00000043418151805065272460000012984654006376821162_);fill:#E76924;" points="51.3,6.2 
					52.1,6 64.8,44.2 64,44.2 				"/>
				<polygon style="clip-path:url(#SVGID_00000043418151805065272460000012984654006376821162_);fill:#E76A24;" points="52.1,6 
					52.8,5.7 65.6,44.2 64.8,44.2 				"/>
				<polygon style="clip-path:url(#SVGID_00000043418151805065272460000012984654006376821162_);fill:#E76B24;" points="52.8,5.7 
					53.5,5.5 66.4,44.2 65.6,44.2 				"/>
				<polygon style="clip-path:url(#SVGID_00000043418151805065272460000012984654006376821162_);fill:#E86C24;" points="53.5,5.5 
					54.3,5.2 67.2,44.2 66.4,44.2 				"/>
				<polygon style="clip-path:url(#SVGID_00000043418151805065272460000012984654006376821162_);fill:#E86D24;" points="54.3,5.2 
					55,5 68.1,44.2 67.2,44.2 				"/>
				<polygon style="clip-path:url(#SVGID_00000043418151805065272460000012984654006376821162_);fill:#E86E23;" points="55,5 
					55.8,4.7 68.9,44.2 68.1,44.2 				"/>
				<polygon style="clip-path:url(#SVGID_00000043418151805065272460000012984654006376821162_);fill:#E96F23;" points="55.8,4.7 
					56.5,4.5 69.7,44.2 68.9,44.2 				"/>
				<polygon style="clip-path:url(#SVGID_00000043418151805065272460000012984654006376821162_);fill:#E97023;" points="56.5,4.5 
					57.2,4.2 70.5,44.2 69.7,44.2 				"/>
				<polygon style="clip-path:url(#SVGID_00000043418151805065272460000012984654006376821162_);fill:#E97123;" points="57.2,4.2 
					58,4 71.3,44.2 70.5,44.2 				"/>
				<polygon style="clip-path:url(#SVGID_00000043418151805065272460000012984654006376821162_);fill:#EA7223;" points="58,4 
					58.7,3.7 72.2,44.2 71.3,44.2 				"/>
				<polygon style="clip-path:url(#SVGID_00000043418151805065272460000012984654006376821162_);fill:#EA7323;" points="58.7,3.7 
					59.5,3.5 73,44.2 72.2,44.2 				"/>
				<polygon style="clip-path:url(#SVGID_00000043418151805065272460000012984654006376821162_);fill:#EA7423;" points="59.5,3.5 
					60.2,3.3 73.8,44.2 73,44.2 				"/>
				<polygon style="clip-path:url(#SVGID_00000043418151805065272460000012984654006376821162_);fill:#EB7523;" points="60.2,3.3 
					60.9,3 74.6,44.2 73.8,44.2 				"/>
				<polygon style="clip-path:url(#SVGID_00000043418151805065272460000012984654006376821162_);fill:#EB7622;" points="60.9,3 
					61.7,2.8 75.5,44.2 74.6,44.2 				"/>
				<polygon style="clip-path:url(#SVGID_00000043418151805065272460000012984654006376821162_);fill:#EB7722;" points="61.7,2.8 
					62.4,2.5 76.3,44.2 75.5,44.2 				"/>
				<polygon style="clip-path:url(#SVGID_00000043418151805065272460000012984654006376821162_);fill:#EB7822;" points="62.4,2.5 
					63.2,2.3 77.1,44.2 76.3,44.2 				"/>
				<polygon style="clip-path:url(#SVGID_00000043418151805065272460000012984654006376821162_);fill:#EC7922;" points="63.2,2.3 
					63.9,2 77.9,44.2 77.1,44.2 				"/>
				<polygon style="clip-path:url(#SVGID_00000043418151805065272460000012984654006376821162_);fill:#EC7A22;" points="63.9,2 
					64.6,1.8 78.7,44.2 77.9,44.2 				"/>
				<polygon style="clip-path:url(#SVGID_00000043418151805065272460000012984654006376821162_);fill:#EC7B22;" points="64.6,1.8 
					65.4,1.5 79.6,44.2 78.7,44.2 				"/>
				<polygon style="clip-path:url(#SVGID_00000043418151805065272460000012984654006376821162_);fill:#ED7C22;" points="65.4,1.5 
					66.1,1.3 80.4,44.2 79.6,44.2 				"/>
				<polygon style="clip-path:url(#SVGID_00000043418151805065272460000012984654006376821162_);fill:#ED7D22;" points="66.1,1.3 
					66.8,1 81.2,44.2 80.4,44.2 				"/>
				<polygon style="clip-path:url(#SVGID_00000043418151805065272460000012984654006376821162_);fill:#ED7E22;" points="66.8,1 
					67.6,0.8 82,44 81.6,44.2 81.2,44.2 				"/>
				
					<rect x="74.8" y="-0.5" transform="matrix(0.9488 -0.3159 0.3159 0.9488 -3.1891 24.8779)" style="clip-path:url(#SVGID_00000043418151805065272460000012984654006376821162_);fill:#EE8021;" width="0.8" height="45.6"/>
				
					<rect x="75.5" y="-0.7" transform="matrix(0.9488 -0.3159 0.3159 0.9488 -3.0735 25.0988)" style="clip-path:url(#SVGID_00000043418151805065272460000012984654006376821162_);fill:#EE8121;" width="0.8" height="45.6"/>
				
					<rect x="76.2" y="-1" transform="matrix(0.9488 -0.3159 0.3159 0.9488 -2.9579 25.3197)" style="clip-path:url(#SVGID_00000043418151805065272460000012984654006376821162_);fill:#EE8221;" width="0.8" height="45.6"/>
				
					<rect x="77" y="-1.2" transform="matrix(0.9488 -0.3159 0.3159 0.9488 -2.8423 25.5407)" style="clip-path:url(#SVGID_00000043418151805065272460000012984654006376821162_);fill:#EF8321;" width="0.8" height="45.6"/>
				
					<rect x="77.7" y="-1.5" transform="matrix(0.9488 -0.3159 0.3159 0.9488 -2.7267 25.7616)" style="clip-path:url(#SVGID_00000043418151805065272460000012984654006376821162_);fill:#EF8421;" width="0.8" height="45.6"/>
				
					<rect x="78.5" y="-1.7" transform="matrix(0.9488 -0.3159 0.3159 0.9488 -2.6111 25.9825)" style="clip-path:url(#SVGID_00000043418151805065272460000012984654006376821162_);fill:#EF8521;" width="0.8" height="45.6"/>
				
					<rect x="79.2" y="-2" transform="matrix(0.9488 -0.3159 0.3159 0.9488 -2.4955 26.2035)" style="clip-path:url(#SVGID_00000043418151805065272460000012984654006376821162_);fill:#F08621;" width="0.8" height="45.6"/>
				
					<rect x="79.9" y="-2.2" transform="matrix(0.9488 -0.3159 0.3159 0.9488 -2.38 26.4244)" style="clip-path:url(#SVGID_00000043418151805065272460000012984654006376821162_);fill:#F08721;" width="0.8" height="45.6"/>
				
					<rect x="80.7" y="-2.5" transform="matrix(0.9488 -0.3159 0.3159 0.9488 -2.2644 26.6453)" style="clip-path:url(#SVGID_00000043418151805065272460000012984654006376821162_);fill:#F08821;" width="0.8" height="45.6"/>
				
					<rect x="81.4" y="-2.7" transform="matrix(0.9488 -0.3159 0.3159 0.9488 -2.1488 26.8663)" style="clip-path:url(#SVGID_00000043418151805065272460000012984654006376821162_);fill:#F08920;" width="0.8" height="45.6"/>
				
					<rect x="82.2" y="-3" transform="matrix(0.9488 -0.3159 0.3159 0.9488 -2.0332 27.0872)" style="clip-path:url(#SVGID_00000043418151805065272460000012984654006376821162_);fill:#F18A20;" width="0.8" height="45.6"/>
				
					<rect x="82.9" y="-3.2" transform="matrix(0.9488 -0.3159 0.3159 0.9488 -1.9176 27.3081)" style="clip-path:url(#SVGID_00000043418151805065272460000012984654006376821162_);fill:#F18B20;" width="0.8" height="45.6"/>
				
					<rect x="83.6" y="-3.5" transform="matrix(0.9488 -0.3159 0.3159 0.9488 -1.802 27.529)" style="clip-path:url(#SVGID_00000043418151805065272460000012984654006376821162_);fill:#F18C20;" width="0.8" height="45.6"/>
				
					<rect x="84.4" y="-3.7" transform="matrix(0.9488 -0.3159 0.3159 0.9488 -1.6864 27.75)" style="clip-path:url(#SVGID_00000043418151805065272460000012984654006376821162_);fill:#F28D20;" width="0.8" height="45.6"/>
				<polygon style="clip-path:url(#SVGID_00000043418151805065272460000012984654006376821162_);fill:#F28E20;" points="77.9,-2.7 
					78.6,-2.9 78.7,-2.9 93.1,40.3 92.3,40.6 				"/>
				<polygon style="clip-path:url(#SVGID_00000043418151805065272460000012984654006376821162_);fill:#F28F20;" points="79.5,-2.9 
					93.8,40.1 93.1,40.3 78.7,-2.9 				"/>
				<polygon style="clip-path:url(#SVGID_00000043418151805065272460000012984654006376821162_);fill:#F39020;" points="80.3,-2.9 
					94.5,39.8 93.8,40.1 79.5,-2.9 				"/>
				<polygon style="clip-path:url(#SVGID_00000043418151805065272460000012984654006376821162_);fill:#F3911F;" points="81.2,-2.9 
					95.3,39.6 94.5,39.8 80.3,-2.9 				"/>
				<polygon style="clip-path:url(#SVGID_00000043418151805065272460000012984654006376821162_);fill:#F3921F;" points="82,-2.9 
					96,39.3 95.3,39.6 81.2,-2.9 				"/>
				<polygon style="clip-path:url(#SVGID_00000043418151805065272460000012984654006376821162_);fill:#F4931F;" points="82.8,-2.9 
					96.8,39.1 96,39.3 82,-2.9 				"/>
				<polygon style="clip-path:url(#SVGID_00000043418151805065272460000012984654006376821162_);fill:#F4941F;" points="83.6,-2.9 
					97.5,38.8 96.8,39.1 82.8,-2.9 				"/>
				<polygon style="clip-path:url(#SVGID_00000043418151805065272460000012984654006376821162_);fill:#F4951F;" points="84.4,-2.9 
					98.2,38.6 97.5,38.8 83.6,-2.9 				"/>
				<polygon style="clip-path:url(#SVGID_00000043418151805065272460000012984654006376821162_);fill:#F5961F;" points="85.3,-2.9 
					99,38.4 98.2,38.6 84.4,-2.9 				"/>
				<polygon style="clip-path:url(#SVGID_00000043418151805065272460000012984654006376821162_);fill:#F5971F;" points="86.1,-2.9 
					99.4,37.3 99.4,38.2 99,38.4 85.3,-2.9 				"/>
				<polygon style="clip-path:url(#SVGID_00000043418151805065272460000012984654006376821162_);fill:#F5981F;" points="86.9,-2.9 
					99.4,34.8 99.4,37.3 86.1,-2.9 				"/>
				<polygon style="clip-path:url(#SVGID_00000043418151805065272460000012984654006376821162_);fill:#F5991F;" points="87.7,-2.9 
					99.4,32.3 99.4,34.8 86.9,-2.9 				"/>
				<polygon style="clip-path:url(#SVGID_00000043418151805065272460000012984654006376821162_);fill:#F69A1E;" points="88.5,-2.9 
					99.4,29.9 99.4,32.3 87.7,-2.9 				"/>
				<polygon style="clip-path:url(#SVGID_00000043418151805065272460000012984654006376821162_);fill:#F69B1E;" points="89.4,-2.9 
					99.4,27.4 99.4,29.9 88.5,-2.9 				"/>
				<polygon style="clip-path:url(#SVGID_00000043418151805065272460000012984654006376821162_);fill:#F69C1E;" points="90.2,-2.9 
					99.4,24.9 99.4,27.4 89.4,-2.9 				"/>
				<polygon style="clip-path:url(#SVGID_00000043418151805065272460000012984654006376821162_);fill:#F79D1E;" points="91,-2.9 
					99.4,22.5 99.4,24.9 90.2,-2.9 				"/>
				<polygon style="clip-path:url(#SVGID_00000043418151805065272460000012984654006376821162_);fill:#F79E1E;" points="91.8,-2.9 
					99.4,20 99.4,22.5 91,-2.9 				"/>
				<polygon style="clip-path:url(#SVGID_00000043418151805065272460000012984654006376821162_);fill:#F79E1E;" points="99.4,20 
					91.8,-2.9 99.4,-2.9 				"/>
				<polygon style="clip-path:url(#SVGID_00000043418151805065272460000012984654006376821162_);fill:#F5961F;" points="91.6,16.1 
					92.2,18 91.5,18 91.5,16.1 				"/>
				<polygon style="clip-path:url(#SVGID_00000043418151805065272460000012984654006376821162_);fill:#F5971F;" points="92.4,16.1 
					93,18 92.2,18 91.6,16.1 				"/>
				<polygon style="clip-path:url(#SVGID_00000043418151805065272460000012984654006376821162_);fill:#F5981F;" points="93.2,16.1 
					93.9,18 93,18 92.4,16.1 				"/>
				<polygon style="clip-path:url(#SVGID_00000043418151805065272460000012984654006376821162_);fill:#F5991F;" points="94.1,16.1 
					94.4,17.1 94.4,18 93.9,18 93.2,16.1 				"/>
				<polygon style="clip-path:url(#SVGID_00000043418151805065272460000012984654006376821162_);fill:#F69A1E;" points="94.4,17.1 
					94.1,16.1 94.4,16.1 				"/>
			</g>
		</g>
		<g>
			<g>
				<path class="st67" d="M67.6,23.9c1.2-2.9,1.4-4.6,7.6-7.8c5-2.6,6.5-7.1,6.5-7.1c-3.4,5.4-10.1,7-10.1,7c-9.3,0-9,13.7-9,13.7
					S65.9,27.9,67.6,23.9z"/>
			</g>
			<g>
				<path class="st67" d="M77.2,26.3c0.8-1.1,1.3-0.5,2.5-2.1c1.2-1.6,2.6-6.9,2.6-6.9s-1.3,2.2-1.7,4s-2,2.7-2,2.7
					c0.1-2-1.7-4-1.7-4c-1.8,0.9-6.5,7.4-6.5,7.4c-3,5.5-7,6-7,6C68.6,34.8,76.3,27.4,77.2,26.3L77.2,26.3z"/>
			</g>
			<g>
				<path class="st67" d="M77.8,34.2c1.3-2.1,1.7-3.8,1.7-3.8c-4.7,5-12,5.5-12,5.5c13.8,2.6,16.1-5.1,16.1-5.1
					C80.7,34,77.8,34.2,77.8,34.2z"/>
			</g>
			<g>
				<path class="st67" d="M59.4,23.4c0.4-2.7,4.4-7.2,4.4-7.2s-4.2,3.9-4.9,5.4c-0.7,1.5-1.7,2.7,1,8.4C60,30,59,26,59.4,23.4z"/>
			</g>
			<g>
				<path class="st67" d="M57.7,30.6c0,0-0.4,2.4,2.6,2.4C60.2,33,58.6,32,57.7,30.6z"/>
			</g>
			<g>
				<path class="st67" d="M64.6,38.4c0,0,1.3,0.8,3.4,0.9c0,0,1.3,0,2.4-0.4c0,0-3.9-0.4-6.1-1.1C64.3,37.9,64.3,38.3,64.6,38.4z"/>
			</g>
		</g>
	</g>
	<g id="swoosh">
		<path class="st68" d="M41.4,21.9c0,0-30.8,8.6-32.4,8.7s-4.3-0.3-4.8-2.9s0.9-4.7,0.9-4.8c0,0-6.3,6.8-4.9,11.1s7.2,2.5,8,2.3
			C9,36.1,41.1,22.1,41.4,21.9z"/>
	</g>
</g>
</svg>
